# MagicaVoxel @ Ephtracy

# group
g Display

# material
mtllib Display.mtl
usemtl palette

# normals
vn -1 0 0
vn 1 0 0
vn 0 0 1
vn 0 0 -1
vn 0 -1 0
vn 0 1 0

# texcoords
vt 0.759766 0.5
vt 0.916016 0.5

# verts
v -21 7 -5
v -21 7 -7
v -21 29 -5
v -21 29 -7
v -13 0 -3
v -13 0 -11
v -13 1 -3
v -13 1 -11
v -7 1 -6
v -7 1 -8
v -7 7 -6
v -7 7 -7
v -7 21 -7
v -7 21 -8
v -1 1 -6
v -1 1 -8
v -1 7 -6
v -1 7 -7
v -1 21 -7
v -1 21 -8
v 5 0 -3
v 5 0 -11
v 5 1 -3
v 5 1 -11
v 14 7 -5
v 14 7 -7
v 14 29 -5
v 14 29 -7
v -13 0 -3
v -13 1 -3
v 5 0 -3
v 5 1 -3
v -21 7 -5
v -21 29 -5
v -20 8 -5
v -20 28 -5
v 13 8 -5
v 13 28 -5
v 14 7 -5
v 14 29 -5
v -7 1 -6
v -7 7 -6
v -1 1 -6
v -1 7 -6
v -21 7 -7
v -21 29 -7
v -7 7 -7
v -7 21 -7
v -1 7 -7
v -1 21 -7
v 14 7 -7
v 14 29 -7
v -7 1 -8
v -7 21 -8
v -1 1 -8
v -1 21 -8
v -13 0 -11
v -13 1 -11
v 5 0 -11
v 5 1 -11
v -13 0 -3
v 5 0 -3
v -13 0 -11
v 5 0 -11
v -21 7 -5
v 14 7 -5
v -7 7 -6
v -1 7 -6
v -21 7 -7
v -7 7 -7
v -1 7 -7
v 14 7 -7
v -13 1 -3
v 5 1 -3
v -7 1 -6
v -1 1 -6
v -7 1 -8
v -1 1 -8
v -13 1 -11
v 5 1 -11
v -7 21 -7
v -1 21 -7
v -7 21 -8
v -1 21 -8
v -21 29 -5
v 14 29 -5
v -21 29 -7
v 14 29 -7

# faces
f 3/2/1 2/2/1 1/2/1
f 4/2/1 2/2/1 3/2/1
f 7/2/1 6/2/1 5/2/1
f 8/2/1 6/2/1 7/2/1
f 11/2/1 10/2/1 9/2/1
f 12/2/1 10/2/1 11/2/1
f 13/2/1 10/2/1 12/2/1
f 14/2/1 10/2/1 13/2/1
f 15/2/2 16/2/2 17/2/2
f 17/2/2 16/2/2 18/2/2
f 18/2/2 16/2/2 19/2/2
f 19/2/2 16/2/2 20/2/2
f 21/2/2 22/2/2 23/2/2
f 23/2/2 22/2/2 24/2/2
f 25/2/2 26/2/2 27/2/2
f 27/2/2 26/2/2 28/2/2
f 31/2/3 30/2/3 29/2/3
f 32/2/3 30/2/3 31/2/3
f 35/2/3 34/2/3 33/2/3
f 36/2/3 34/2/3 35/2/3
f 37/2/3 35/2/3 33/2/3
f 37/1/3 36/1/3 35/1/3
f 38/2/3 34/2/3 36/2/3
f 38/1/3 36/1/3 37/1/3
f 39/2/3 37/2/3 33/2/3
f 39/2/3 38/2/3 37/2/3
f 40/2/3 34/2/3 38/2/3
f 40/2/3 38/2/3 39/2/3
f 43/2/3 42/2/3 41/2/3
f 44/2/3 42/2/3 43/2/3
f 45/2/4 46/2/4 47/2/4
f 47/2/4 46/2/4 48/2/4
f 48/2/4 46/2/4 50/2/4
f 49/2/4 50/2/4 51/2/4
f 50/2/4 46/2/4 52/2/4
f 51/2/4 50/2/4 52/2/4
f 53/2/4 54/2/4 55/2/4
f 55/2/4 54/2/4 56/2/4
f 57/2/4 58/2/4 59/2/4
f 59/2/4 58/2/4 60/2/4
f 63/2/5 62/2/5 61/2/5
f 64/2/5 62/2/5 63/2/5
f 67/2/5 66/2/5 65/2/5
f 68/2/5 66/2/5 67/2/5
f 69/2/5 67/2/5 65/2/5
f 70/2/5 67/2/5 69/2/5
f 71/2/5 66/2/5 68/2/5
f 72/2/5 66/2/5 71/2/5
f 73/2/6 74/2/6 75/2/6
f 75/2/6 74/2/6 76/2/6
f 73/2/6 75/2/6 77/2/6
f 76/2/6 74/2/6 78/2/6
f 73/2/6 77/2/6 79/2/6
f 77/2/6 78/2/6 79/2/6
f 78/2/6 74/2/6 80/2/6
f 79/2/6 78/2/6 80/2/6
f 81/2/6 82/2/6 83/2/6
f 83/2/6 82/2/6 84/2/6
f 85/2/6 86/2/6 87/2/6
f 87/2/6 86/2/6 88/2/6
