# MagicaVoxel @ Ephtracy

# group
g Locker

# material
mtllib Locker.mtl
usemtl palette

# normals
vn -1 0 0
vn 1 0 0
vn 0 0 1
vn 0 0 -1
vn 0 -1 0
vn 0 1 0

# texcoords
vt 0.369141 0.5
vt 0.962891 0.5
vt 0.966797 0.5

# verts
v -30 0 10
v -30 0 -10
v -30 1 10
v -30 1 9
v -30 2 10
v -30 2 9
v -30 36 10
v -30 36 9
v -30 37 10
v -30 37 9
v -30 38 10
v -30 38 -10
v -30 40 10
v -30 40 -10
v 30 0 10
v 30 0 -10
v 30 1 10
v 30 1 9
v 30 2 10
v 30 2 9
v 30 36 10
v 30 36 9
v 30 37 10
v 30 37 9
v 30 38 10
v 30 38 -10
v 30 40 10
v 30 40 -10
v -30 0 10
v -30 1 10
v -30 2 10
v -30 36 10
v -30 37 10
v -30 38 10
v -30 40 10
v -20 20 10
v -20 24 10
v -19 20 10
v -19 24 10
v -16 2 10
v -16 36 10
v -15 2 10
v -15 36 10
v -12 20 10
v -12 24 10
v -11 20 10
v -11 24 10
v -1 2 10
v -1 36 10
v 1 2 10
v 1 36 10
v 12 20 10
v 12 24 10
v 13 20 10
v 13 24 10
v 16 2 10
v 16 36 10
v 17 2 10
v 17 36 10
v 20 20 10
v 20 24 10
v 21 20 10
v 21 24 10
v 30 0 10
v 30 1 10
v 30 2 10
v 30 36 10
v 30 37 10
v 30 38 10
v 30 40 10
v -30 0 -10
v -30 38 -10
v -30 40 -10
v 30 0 -10
v 30 38 -10
v 30 40 -10
v -30 0 10
v 30 0 10
v -30 0 -10
v 30 0 -10
v -30 40 10
v 30 40 10
v -30 40 -10
v 30 40 -10

# faces
f 3/2/1 2/2/1 1/2/1
f 4/2/1 2/2/1 3/2/1
f 5/3/1 4/3/1 3/3/1
f 6/2/1 2/2/1 4/2/1
f 6/3/1 4/3/1 5/3/1
f 7/2/1 6/2/1 5/2/1
f 8/2/1 2/2/1 6/2/1
f 8/2/1 6/2/1 7/2/1
f 9/3/1 8/3/1 7/3/1
f 10/2/1 2/2/1 8/2/1
f 10/3/1 8/3/1 9/3/1
f 11/2/1 10/2/1 9/2/1
f 12/2/1 2/2/1 10/2/1
f 12/2/1 10/2/1 11/2/1
f 13/1/1 12/1/1 11/1/1
f 14/1/1 12/1/1 13/1/1
f 15/2/2 16/2/2 17/2/2
f 17/2/2 16/2/2 18/2/2
f 17/3/2 18/3/2 19/3/2
f 18/2/2 16/2/2 20/2/2
f 19/3/2 18/3/2 20/3/2
f 19/2/2 20/2/2 21/2/2
f 20/2/2 16/2/2 22/2/2
f 21/2/2 20/2/2 22/2/2
f 21/3/2 22/3/2 23/3/2
f 22/2/2 16/2/2 24/2/2
f 23/3/2 22/3/2 24/3/2
f 23/2/2 24/2/2 25/2/2
f 24/2/2 16/2/2 26/2/2
f 25/2/2 24/2/2 26/2/2
f 25/1/2 26/1/2 27/1/2
f 27/1/2 26/1/2 28/1/2
f 36/2/3 32/2/3 31/2/3
f 37/2/3 32/2/3 36/2/3
f 38/2/3 36/2/3 31/2/3
f 38/3/3 37/3/3 36/3/3
f 39/2/3 32/2/3 37/2/3
f 39/3/3 37/3/3 38/3/3
f 40/3/3 31/3/3 30/3/3
f 40/2/3 38/2/3 31/2/3
f 40/2/3 39/2/3 38/2/3
f 41/2/3 32/2/3 39/2/3
f 41/2/3 39/2/3 40/2/3
f 41/3/3 33/3/3 32/3/3
f 42/3/3 40/3/3 30/3/3
f 42/3/3 41/3/3 40/3/3
f 43/3/3 33/3/3 41/3/3
f 43/3/3 41/3/3 42/3/3
f 44/2/3 43/2/3 42/2/3
f 45/2/3 43/2/3 44/2/3
f 46/2/3 44/2/3 42/2/3
f 46/3/3 45/3/3 44/3/3
f 47/2/3 43/2/3 45/2/3
f 47/3/3 45/3/3 46/3/3
f 48/3/3 42/3/3 30/3/3
f 48/2/3 46/2/3 42/2/3
f 48/2/3 47/2/3 46/2/3
f 49/2/3 43/2/3 47/2/3
f 49/2/3 47/2/3 48/2/3
f 49/3/3 33/3/3 43/3/3
f 50/3/3 48/3/3 30/3/3
f 50/3/3 49/3/3 48/3/3
f 51/3/3 33/3/3 49/3/3
f 51/3/3 49/3/3 50/3/3
f 52/2/3 51/2/3 50/2/3
f 53/2/3 51/2/3 52/2/3
f 54/2/3 52/2/3 50/2/3
f 54/3/3 53/3/3 52/3/3
f 55/2/3 51/2/3 53/2/3
f 55/3/3 53/3/3 54/3/3
f 56/3/3 50/3/3 30/3/3
f 56/2/3 54/2/3 50/2/3
f 56/2/3 55/2/3 54/2/3
f 57/2/3 51/2/3 55/2/3
f 57/2/3 55/2/3 56/2/3
f 57/3/3 33/3/3 51/3/3
f 58/3/3 56/3/3 30/3/3
f 58/3/3 57/3/3 56/3/3
f 59/3/3 33/3/3 57/3/3
f 59/3/3 57/3/3 58/3/3
f 60/2/3 59/2/3 58/2/3
f 61/2/3 59/2/3 60/2/3
f 62/2/3 60/2/3 58/2/3
f 62/3/3 61/3/3 60/3/3
f 63/2/3 59/2/3 61/2/3
f 63/3/3 61/3/3 62/3/3
f 64/2/3 30/2/3 29/2/3
f 65/3/3 58/3/3 30/3/3
f 65/2/3 30/2/3 64/2/3
f 66/2/3 62/2/3 58/2/3
f 66/3/3 58/3/3 65/3/3
f 66/2/3 63/2/3 62/2/3
f 67/2/3 59/2/3 63/2/3
f 67/2/3 63/2/3 66/2/3
f 67/3/3 33/3/3 59/3/3
f 68/2/3 34/2/3 33/2/3
f 68/3/3 33/3/3 67/3/3
f 69/1/3 35/1/3 34/1/3
f 69/2/3 34/2/3 68/2/3
f 70/1/3 35/1/3 69/1/3
f 71/2/4 72/2/4 74/2/4
f 72/1/4 73/1/4 75/1/4
f 74/2/4 72/2/4 75/2/4
f 75/1/4 73/1/4 76/1/4
f 79/2/5 78/2/5 77/2/5
f 80/2/5 78/2/5 79/2/5
f 81/1/6 82/1/6 83/1/6
f 83/1/6 82/1/6 84/1/6
